<?xml version="1.0" encoding="iso-8859-1"?>
<!-- Generator: Adobe Illustrator 16.0.0, SVG Export Plug-In . SVG Version: 6.00 Build 0)  -->
<!DOCTYPE svg PUBLIC "-//W3C//DTD SVG 1.1//EN" "http://www.w3.org/Graphics/SVG/1.1/DTD/svg11.dtd">
<svg version="1.1" id="Capa_1" xmlns="http://www.w3.org/2000/svg" xmlns:xlink="http://www.w3.org/1999/xlink" x="0px" y="0px"
	 width="45.713px" height="45.714px" viewBox="0 0 45.713 45.714" style="enable-background:new 0 0 45.713 45.714;"
	 xml:space="preserve">
<g>
	<g>
		<polygon points="31.954,38.161 31.954,34.727 29.7,34.727 29.7,36.771 24.333,36.743 24.333,24.083 25.487,24.083 25.487,19.916 
			24.333,19.916 24.333,19.573 25.487,19.573 25.487,15.43 22.866,15.43 22.8,15.43 20.18,15.43 20.18,19.573 21.333,19.573 
			21.333,19.916 20.18,19.916 20.18,24.083 21.333,24.083 21.333,45.714 24.333,45.714 24.333,43.615 29.7,43.645 29.7,45.714 
			31.954,45.714 31.954,42.254 29.297,42.254 29.297,38.161 		"/>
		<polygon points="20.045,2.4 20.045,5.96 22.8,5.96 22.866,5.96 25.621,5.96 25.621,2.4 24.118,2.4 24.118,1.161 25.941,1.161 
			25.941,5.941 25.939,5.941 25.939,7.102 30.745,7.102 30.745,8.925 29.508,8.925 29.505,7.421 25.946,7.421 25.946,11.588 
			30.745,11.588 30.745,13.434 29.505,13.434 29.508,11.932 25.946,11.932 25.946,15.087 27.108,15.087 27.108,13.092 
			28.346,13.092 28.346,14.595 31.907,14.595 31.907,10.428 27.108,10.428 27.108,8.582 28.346,8.582 28.346,10.086 31.907,10.086 
			31.907,5.942 27.101,5.941 27.101,0 22.957,0 22.957,3.561 24.462,3.561 24.462,4.799 22.866,4.799 22.8,4.799 21.204,4.799 
			21.204,3.561 22.709,3.561 22.709,0 18.566,0 18.566,5.941 13.76,5.942 13.76,10.086 17.321,10.086 17.321,8.582 18.56,8.582 
			18.56,10.428 13.76,10.428 13.76,14.595 17.321,14.595 17.321,13.092 18.56,13.092 18.56,15.087 19.721,15.087 19.721,11.932 
			16.159,11.932 16.161,13.434 14.921,13.434 14.921,11.588 19.721,11.588 19.721,7.421 16.161,7.421 16.159,8.925 14.921,8.925 
			14.921,7.102 19.728,7.102 19.728,5.941 19.726,5.941 19.726,1.161 21.548,1.161 21.548,2.4 		"/>
		<path d="M25.487,6.443h-2.62H22.8h-2.62v4.145h2.62h0.066h2.62L25.487,6.443L25.487,6.443z M24.325,9.426h-1.24V7.922h-0.219H22.8
			h-0.219v1.504h-1.24V7.604H22.8h0.066h1.459V9.426z"/>
		<path d="M22.8,10.929h-2.62v4.158v0.009h2.62h0.066h2.62v-0.009v-4.158h-2.62H22.8z M24.325,13.935h-1.24v-1.503h-0.219H22.8
			h-0.219v1.503h-1.24V12.09H22.8h0.066h1.459V13.935z"/>
	</g>
</g>
<g>
</g>
<g>
</g>
<g>
</g>
<g>
</g>
<g>
</g>
<g>
</g>
<g>
</g>
<g>
</g>
<g>
</g>
<g>
</g>
<g>
</g>
<g>
</g>
<g>
</g>
<g>
</g>
<g>
</g>
</svg>
